<?xml version="1.0" encoding="UTF-8"?>
<svg version="1.1" xmlns="http://www.w3.org/2000/svg" width="2000" height="2242">
<path d="M0 0 C5.16254374 3.4391873 9.76950893 7.44077972 14.43017578 11.51586914 C19.23653956 15.70869681 24.1204597 19.586398 29.5625 22.9375 C30.26246094 23.36933594 30.96242188 23.80117187 31.68359375 24.24609375 C40.50368121 28.92316765 50.32500903 27.6899401 59.5625 24.9375 C59.63727342 31.12643871 59.69139419 37.31510802 59.72729492 43.50439453 C59.74227873 45.60502714 59.76267281 47.70562901 59.78881836 49.80615234 C60.17914337 81.99648572 60.17914337 81.99648572 48.59375 93.97265625 C32.86758165 107.39118033 9.45026186 105.11333237 -9.82537842 104.52746582 C-91.51656727 102.11752261 -170.83638162 114.50936194 -313.79638672 179.46191406 C-317.71384014 181.65058928 -321.67080076 183.76411667 -325.62524414 185.88500977 C-335.55280605 191.21451034 -345.35213268 196.70142805 -355.01757812 202.49121094 C-358.87514076 204.79671952 -362.7448284 207.08170384 -366.61254883 209.37011719 C-371.92025208 212.51151244 -377.22442432 215.65885555 -382.5289917 218.80554199 C-384.47896984 219.96209623 -386.42915363 221.11830297 -388.37939453 222.27441406 C-392.44090152 224.68214764 -396.50182426 227.09086481 -400.5625 229.5 C-401.2399527 229.90182495 -401.9174054 230.3036499 -402.61538696 230.71765137 C-410.47692248 235.38159778 -418.32395404 240.06782601 -426.1496582 244.79174805 C-435.98426334 250.72665522 -445.88848871 256.51373037 -455.875 262.1875 C-477.4191175 274.44081927 -498.48149866 286.67785329 -516.4375 303.9375 C-518.40618997 305.76153006 -520.39081992 307.56785195 -522.375 309.375 C-528.74677374 315.21007193 -535.09193066 321.07396797 -541.4375 326.9375 C-550.71271721 335.50813098 -560.00414408 344.06054243 -569.328125 352.578125 C-576.02097788 358.69832737 -582.67431533 364.85914734 -589.29272461 371.05981445 C-591.88555974 373.48801665 -594.48404855 375.90983929 -597.08862305 378.32543945 C-608.64449855 389.08019324 -619.84055481 400.18502834 -630.98876953 411.35839844 C-633.57251777 413.94791167 -636.16082744 416.53281233 -638.75042152 419.11647797 C-640.78043509 421.14285774 -642.80803655 423.17163769 -644.83494186 425.2011261 C-646.24430247 426.61145909 -647.65564285 428.01981282 -649.06704712 429.42810059 C-653.53445264 433.91177541 -657.87663691 438.44396918 -661.9921875 443.2540741 C-664.19510027 445.81991396 -666.50755236 448.27546913 -668.8125 450.75 C-673.1062538 455.39788542 -677.1728184 460.18166348 -681.140625 465.11328125 C-683.16282938 467.59976725 -685.22911879 470.04035799 -687.31958008 472.46948242 C-693.76638196 479.97713587 -699.80189977 487.76684761 -705.74169922 495.6796875 C-706.87020446 497.18219491 -708.00203402 498.68221135 -709.13720703 500.1796875 C-730.22207441 528.0119532 -747.75419624 557.78400717 -763.4375 588.9375 C-763.8922168 589.82695313 -764.34693359 590.71640625 -764.81542969 591.6328125 C-796.85974837 654.48992341 -808.9755194 723.71095177 -816.2656877 793.12075949 C-816.95132866 799.61263145 -817.65546816 806.10249641 -818.35798645 812.59255981 C-819.53216238 823.45498414 -820.69727065 834.31834779 -821.85424805 845.18261719 C-821.92699628 845.86570686 -821.99974451 846.54879654 -822.07469723 847.2525859 C-822.36951658 850.02109839 -822.66429231 852.78961552 -822.95901613 855.55813818 C-823.77531344 863.22574856 -824.59308773 870.89320096 -825.41186523 878.56054688 C-825.48542644 879.24943488 -825.55898765 879.93832289 -825.63477799 880.64808629 C-826.86561906 892.17182685 -828.10548228 903.69458129 -829.35098153 915.21674645 C-830.18078209 922.90007738 -830.99936041 930.58449214 -831.80885541 938.26998782 C-832.3144589 943.04934956 -832.82938219 947.82767532 -833.34668541 952.60578346 C-833.58280973 954.80464991 -833.81511497 957.00393069 -834.04312515 959.20365334 C-835.78294169 975.96008816 -838.05968688 991.4999516 -845.8125 1006.6875 C-846.29855713 1007.67266602 -846.78461426 1008.65783203 -847.28540039 1009.67285156 C-849.27488361 1013.69371586 -851.30991048 1017.69094715 -853.34765625 1021.6875 C-864.88613359 1044.35131227 -863.29400467 1063.49286133 -859.60170603 1087.86974645 C-859.01931279 1091.74861906 -858.46302136 1095.63123432 -857.90402222 1099.51353455 C-856.8442666 1106.84772052 -855.7634466 1114.17862331 -854.67388618 1121.50843471 C-853.0750685 1132.2693274 -851.50367083 1143.03423268 -849.93795586 1153.79998684 C-849.822711 1154.59239507 -849.70746615 1155.38480331 -849.58872902 1156.20122391 C-849.35891057 1157.781652 -849.12916678 1159.36209095 -848.89949977 1160.94254106 C-848.22960705 1165.54690272 -847.55191308 1170.15002843 -846.86732125 1174.75222695 C-846.44232398 1177.61468225 -846.02178441 1180.47778166 -845.60211563 1183.34102249 C-845.31502084 1185.28891572 -845.02208506 1187.2359453 -844.72894287 1189.18293762 C-843.85519053 1195.16960883 -843.21335995 1200.88680284 -843.4375 1206.9375 C-844.01757812 1206.51597656 -844.59765625 1206.09445312 -845.1953125 1205.66015625 C-851.24631771 1201.24498603 -851.24631771 1201.24498603 -858.4375 1199.9375 C-863.62419719 1201.70097704 -865.78410121 1204.22034659 -868.4375 1208.9375 C-870.97133598 1216.53900795 -869.30517166 1222.0905317 -866.25 1229.125 C-865.81300781 1230.14049927 -865.81300781 1230.14049927 -865.3671875 1231.17651367 C-862.74933043 1236.90448044 -859.92103624 1241.80861989 -854 1244.5 C-849.567275 1245.04436974 -848.07863988 1244.49404502 -844.4375 1241.9375 C-842.77153062 1240.14032062 -841.22959914 1238.30466098 -839.734375 1236.36328125 C-839.30640625 1235.89277344 -838.8784375 1235.42226562 -838.4375 1234.9375 C-837.7775 1234.9375 -837.1175 1234.9375 -836.4375 1234.9375 C-825.69908455 1256.47114792 -817.00161482 1278.93782529 -808.125 1301.28442383 C-784.32052114 1361.41570219 -784.32052114 1361.41570219 -746.69921875 1413.49609375 C-744.75813341 1415.59139313 -742.86765898 1417.71454888 -741 1419.875 C-737.60938928 1423.7761968 -734.11652401 1427.58092064 -730.61645508 1431.38354492 C-727.78262108 1434.46392488 -724.97422043 1437.56426994 -722.1875 1440.6875 C-712.62996875 1451.31642711 -702.8359569 1461.709817 -692.62451172 1471.71362305 C-689.70521967 1474.59014009 -686.91043778 1477.50592873 -684.24609375 1480.62109375 C-679.77880862 1485.7936741 -674.93439878 1490.59033301 -670.0949707 1495.41040039 C-668.50291034 1496.99709946 -666.9162701 1498.58907742 -665.33007812 1500.18164062 C-660.5077519 1505.00679238 -655.63852349 1509.70703013 -650.45092773 1514.14233398 C-645.12417548 1518.89165001 -640.22293289 1524.11927754 -635.21484375 1529.19921875 C-630.68388937 1533.76974478 -626.11272066 1538.18676754 -621.22460938 1542.37304688 C-618.49367875 1544.76373041 -615.9696747 1547.33991223 -613.4375 1549.9375 C-609.52496404 1553.90413765 -605.54188804 1557.68335151 -601.296875 1561.296875 C-598.62736304 1563.65232673 -596.1594299 1566.18978689 -593.6875 1568.75 C-591.73678431 1570.64652914 -589.74500988 1572.43221042 -587.69140625 1574.21484375 C-583.4825747 1577.87118713 -579.42000836 1581.66418343 -575.375 1585.5 C-573.87914222 1586.91301027 -572.38304383 1588.32576585 -570.88671875 1589.73828125 C-570.14212402 1590.44162598 -569.3975293 1591.1449707 -568.63037109 1591.86962891 C-560.25488958 1599.76768373 -551.81742984 1607.59949694 -543.35058594 1615.39941406 C-538.55494549 1619.82053225 -533.78857475 1624.27261788 -529.0234375 1628.7265625 C-525.00779986 1632.47779602 -520.97911948 1636.21428476 -516.9375 1639.9375 C-510.40561681 1645.95668593 -503.90949371 1652.01365873 -497.42285156 1658.08154297 C-495.35382069 1660.01572554 -493.28243943 1661.94737067 -491.2109375 1663.87890625 C-485.13959986 1669.54712106 -479.0859008 1675.20713899 -473.26928711 1681.13867188 C-471.61224594 1682.76589823 -469.91248901 1684.25233109 -468.1328125 1685.7421875 C-461.34487145 1691.64297933 -455.13526415 1698.17361133 -448.8125 1704.5625 C-446.23994223 1707.16181543 -443.66397506 1709.75768317 -441.0859375 1712.3515625 C-440.21852432 1713.23142319 -440.21852432 1713.23142319 -439.33358765 1714.12905884 C-433.35869326 1720.84134773 -433.35869326 1720.84134773 -425.640625 1724.12890625 C-424.17882812 1723.81759766 -424.17882812 1723.81759766 -422.6875 1723.5 C-420.99560547 1723.15582031 -420.99560547 1723.15582031 -419.26953125 1722.8046875 C-417.37267578 1722.37542969 -417.37267578 1722.37542969 -415.4375 1721.9375 C-413.96288287 1721.64517355 -412.48758763 1721.35625214 -411.01171875 1721.0703125 C-393.36503093 1717.67621183 -393.36503093 1717.67621183 -379.64453125 1706.8046875 C-378.2685546 1704.84642701 -378.2685546 1704.84642701 -377.4375 1701.9375 C-376.7775 1701.9375 -376.1175 1701.9375 -375.4375 1701.9375 C-372.73955535 1708.68236161 -372.58729751 1714.18607499 -375 1720.9375 C-379.40927433 1731.00921084 -386.90677466 1736.19130513 -396.4375 1740.9375 C-359.61744019 1762.99205227 -321.71003156 1781.9467808 -279.8125 1792.25 C-278.93392334 1792.46825439 -278.05534668 1792.68650879 -277.15014648 1792.91137695 C-256.44599069 1797.72232399 -235.37618176 1799.76289455 -214.23574829 1801.45941162 C-206.71942593 1802.06434015 -199.20717208 1802.71726233 -191.6953125 1803.375 C-190.5742596 1803.47306757 -190.5742596 1803.47306757 -189.43055916 1803.5731163 C-130.65014378 1808.73911628 -71.72767006 1818.09715086 -14.3828125 1832.0546875 C-13.32428574 1832.31201157 -12.26575897 1832.56933563 -11.17515564 1832.8344574 C-6.12261246 1834.06887267 -1.07754162 1835.32693992 3.9597168 1836.62231445 C5.7660976 1837.07509512 7.57249327 1837.52781649 9.37890625 1837.98046875 C10.17976654 1838.19448334 10.98062683 1838.40849792 11.80575562 1838.6289978 C19.00834209 1840.41246182 25.41631292 1839.7154187 32.53125 1837.73828125 C33.41433838 1837.50157715 34.29742676 1837.26487305 35.20727539 1837.02099609 C36.14949951 1836.76656738 37.09172363 1836.51213867 38.0625 1836.25 C66.29602198 1828.95117589 95.51717458 1824.54471896 124.55859375 1822.16796875 C125.30795197 1822.10543411 126.05731018 1822.04289948 126.82937622 1821.97846985 C130.4527273 1821.67813152 134.07561541 1821.39676097 137.703125 1821.15161133 C152.7165057 1819.98124331 158.29647774 1814.70334528 168.40820312 1803.93554688 C172.89482324 1799.27369668 176.9761979 1795.70613493 182.83227539 1792.89038086 C184.74171885 1792.05217203 184.74171885 1792.05217203 185.5625 1789.9375 C185.85408579 1787.90902934 186.09741334 1785.87352372 186.31640625 1783.8359375 C186.51459961 1782.01835937 186.51459961 1782.01835937 186.71679688 1780.1640625 C186.85150391 1778.89304687 186.98621094 1777.62203125 187.125 1776.3125 C187.26357422 1775.03375 187.40214844 1773.755 187.54492188 1772.4375 C187.88754531 1769.27118685 188.22658367 1766.10453058 188.5625 1762.9375 C189.2225 1762.9375 189.8825 1762.9375 190.5625 1762.9375 C191.88353086 1764.65843476 192.9972959 1766.47048055 194.1484375 1768.30859375 C195.85395802 1770.27324032 197.03271342 1770.55534075 199.5625 1770.9375 C202.62926635 1759.74909033 196.29323044 1746.87356491 191.5625 1736.9375 C195.46722717 1738.5344688 198.19268329 1741.18315505 201.125 1744.125 C201.64731201 1744.64892334 202.16962402 1745.17284668 202.70776367 1745.71264648 C211.16825021 1754.43318112 217.96329092 1764.58477687 224.22265625 1774.9609375 C225.41564568 1777.06800092 225.41564568 1777.06800092 227.5625 1777.9375 C227.67078125 1777.20660156 227.7790625 1776.47570313 227.890625 1775.72265625 C229.4146727 1769.40494689 234.05476669 1763.32687434 239.5625 1759.9375 C242.0625 1758.875 242.0625 1758.875 244.5625 1758.9375 C248.21743838 1761.84483735 249.41626537 1763.35256147 250.5625 1767.9375 C252.2125 1758.3675 253.8625 1748.7975 255.5625 1738.9375 C260.5625 1739.9375 260.5625 1739.9375 262.5625 1741.9375 C265.14424677 1745.81012016 267.3789072 1749.82983978 269.5625 1753.9375 C270.5525 1753.9375 271.5425 1753.9375 272.5625 1753.9375 C272.73265625 1753.380625 272.9028125 1752.82375 273.078125 1752.25 C274.32775706 1748.3149884 275.66053776 1744.44640465 277.375 1740.6875 C277.64957031 1740.08421875 277.92414063 1739.4809375 278.20703125 1738.859375 C280.38695959 1735.76852559 282.10265198 1733.50796013 285.5625 1731.9375 C290.58847049 1731.34123073 295.57771165 1731.51105057 300.625 1731.6875 C303.32410314 1731.75363423 306.02324049 1731.80626303 308.72265625 1731.859375 C309.91511963 1731.89643555 311.10758301 1731.93349609 312.33618164 1731.97167969 C315.24304402 1731.94088432 317.74741098 1731.62328208 320.5625 1730.9375 C320.2325 1732.0925 319.9025 1733.2475 319.5625 1734.4375 C318.1839659 1740.06072905 317.77288048 1745.27291009 319.625 1750.875 C321.29961329 1754.20573423 321.29961329 1754.20573423 324.75 1755.125 C333.53470953 1754.69296511 338.55674902 1749.36924848 344.67578125 1743.6171875 C347.57132145 1740.92931121 350.51827033 1738.3924211 353.5625 1735.875 C354.449375 1735.14152344 355.33625 1734.40804688 356.25 1733.65234375 C358.5625 1731.9375 358.5625 1731.9375 361.5625 1730.9375 C361.98208984 1731.88109375 361.98208984 1731.88109375 362.41015625 1732.84375 C365.83088071 1740.14716171 369.72630977 1746.0146884 376.1875 1750.9375 C387.38459419 1754.25515754 397.36142231 1751.33611777 407.35595703 1745.97558594 C421.94447453 1737.80174223 435.67895233 1727.9445238 449.55567932 1718.6328125 C455.29690975 1714.78154184 461.04863725 1710.94626752 466.8046875 1707.1171875 C467.6652626 1706.54450638 468.52583771 1705.97182526 469.41249084 1705.38179016 C476.23302355 1700.84297887 476.23302355 1700.84297887 479.57235718 1698.62301636 C490.30183253 1691.48851843 500.96963556 1684.27336144 511.5625 1676.9375 C513.11215454 1675.86520142 513.11215454 1675.86520142 514.69311523 1674.77124023 C517.46422682 1672.85056265 520.23285463 1670.92638662 523 1669 C523.97735107 1668.3196167 524.95470215 1667.6392334 525.96166992 1666.93823242 C539.15492037 1657.74581547 552.26851728 1648.45347407 565.29296875 1639.0234375 C569.03865505 1636.31279834 572.79695225 1633.62045277 576.5625 1630.9375 C590.52578293 1620.97934666 604.38768487 1610.88805145 618.18017578 1600.69482422 C620.5321305 1598.9599021 622.88834839 1597.23094856 625.24609375 1595.50390625 C635.53188696 1587.9631341 645.7081366 1580.28941276 655.83984375 1572.54296875 C659.39985601 1569.82150925 662.97215039 1567.11877105 666.5625 1564.4375 C672.93510622 1559.67625278 679.25213331 1554.84254418 685.57543945 1550.01611328 C690.94636395 1545.92010762 696.33594999 1541.85127024 701.75 1537.8125 C709.01733957 1532.38581281 716.1751902 1526.82338569 723.32421875 1521.2421875 C726.89126368 1518.45749377 730.47228651 1515.692255 734.0625 1512.9375 C744.71832672 1504.75414758 755.31865296 1496.49873743 765.875 1488.1875 C767.54003342 1486.8794146 769.20558026 1485.57198857 770.87158203 1484.26513672 C772.04539524 1483.34350862 773.21817459 1482.42056286 774.39013672 1481.49658203 C776.1938932 1480.07626023 778.00257681 1478.66245085 779.8125 1477.25 C780.36204346 1476.81526367 780.91158691 1476.38052734 781.4777832 1475.93261719 C785.33433332 1472.9375 785.33433332 1472.9375 787.5625 1472.9375 C787.2325 1481.5175 786.9025 1490.0975 786.5625 1498.9375 C790.1925 1487.3875 793.8225 1475.8375 797.5625 1463.9375 C801.5625 1465.9375 801.5625 1465.9375 804.875 1468.0625 C808.57974541 1470.16369889 811.27253634 1470.55035195 815.5625 1469.9375 C825.65520298 1465.61205586 830.70373105 1456.34850471 836.36962891 1447.43432617 C840.46484986 1441.009887 844.84692877 1434.92754995 849.5625 1428.9375 C850.62017578 1427.58978516 850.62017578 1427.58978516 851.69921875 1426.21484375 C857.64218639 1418.79947121 864.02833767 1411.82973068 870.5625 1404.9375 C871.2740625 1404.18339844 871.985625 1403.42929688 872.71875 1402.65234375 C877.45755655 1397.76787716 882.60161514 1393.48571418 887.92333984 1389.25146484 C889.76936127 1387.77167823 891.59763358 1386.27133635 893.42578125 1384.76953125 C894.76280365 1383.67942107 896.10004157 1382.58957517 897.4375 1381.5 C898.38314819 1380.71931152 898.38314819 1380.71931152 899.34790039 1379.92285156 C899.95239014 1379.43397461 900.55687988 1378.94509766 901.1796875 1378.44140625 C901.71190918 1378.00642822 902.24413086 1377.5714502 902.79248047 1377.12329102 C904.93778537 1375.68608468 907.14593497 1374.82817977 909.5625 1373.9375 C904.81047969 1387.95076388 899.58069628 1401.69776818 893.9375 1415.375 C893.54443665 1416.33138367 893.15137329 1417.28776733 892.74639893 1418.27313232 C886.01100222 1434.65063795 879.00932047 1450.86918598 871.5625 1466.9375 C870.94050279 1468.28731861 870.31876764 1469.637258 869.69726562 1470.98730469 C856.81448165 1498.93850915 843.08154317 1526.34071877 827.5625 1552.9375 C826.92570312 1554.03513672 826.28890625 1555.13277344 825.6328125 1556.26367188 C809.47788455 1584.0537029 791.94042281 1611.27542911 772.5625 1636.9375 C772.12873047 1637.51322754 771.69496094 1638.08895508 771.24804688 1638.68212891 C768.38921629 1642.46264129 765.48242757 1646.20389834 762.5625 1649.9375 C761.6819081 1651.07652648 760.80171007 1652.21585756 759.921875 1653.35546875 C754.75320985 1660.02330671 749.42545824 1666.51632562 743.9050293 1672.89599609 C740.13511119 1677.25329868 736.47210314 1681.6871569 732.83984375 1686.16015625 C729.8262087 1689.83544702 726.74837393 1693.45424063 723.67016602 1697.07543945 C719.80232994 1701.63383845 716.01107902 1706.24992583 712.2421875 1710.890625 C710.5625 1712.9375 710.5625 1712.9375 709.5625 1713.9375 C709.3838726 1715.28233844 709.26297643 1716.63496247 709.16796875 1717.98828125 C707.96181067 1733.29030866 705.95183347 1747.26076839 694.25 1758.3125 C686.12852567 1764.53579422 676.99822949 1764.3941614 667.125 1764.5 C652.868675 1764.69709205 641.19349559 1765.55056326 629.4375 1774.25 C627.41161542 1777.15376789 626.8471 1779.13622502 627.0625 1782.68359375 C628.05162045 1787.14236327 630.34476261 1790.9858952 632.5625 1794.9375 C633.23639329 1796.26719548 633.90567313 1797.59929199 634.5625 1798.9375 C630.9272782 1798.32051281 628.73128273 1796.76553028 625.8125 1794.5625 C616.49652115 1787.97776604 609.06407541 1786.933852 597.5625 1787.9375 C593.53112815 1788.71070642 589.7027227 1789.85427954 585.81835938 1791.17480469 C583.03840457 1792.11469417 580.24587805 1793.01292738 577.453125 1793.9140625 C573.1695708 1795.30949414 568.88642604 1796.70579592 564.61328125 1798.1328125 C563.26230347 1798.58164795 563.26230347 1798.58164795 561.8840332 1799.03955078 C559.34722066 1799.92416035 559.34722066 1799.92416035 556.5625 1801.9375 C557.01140943 1806.92618703 558.24450217 1809.27444125 561.6875 1812.875 C562.90759766 1814.17050781 562.90759766 1814.17050781 564.15234375 1815.4921875 C566.15769677 1817.52679202 568.19148153 1819.51976971 570.25 1821.5 C578.44771696 1829.67887163 587.00881353 1844.11164889 587.67602539 1855.95214844 C587.66817017 1856.98903809 587.66817017 1856.98903809 587.66015625 1858.046875 C587.65532227 1859.17802734 587.65532227 1859.17802734 587.65039062 1860.33203125 C587.64201172 1861.10933594 587.63363281 1861.88664062 587.625 1862.6875 C587.62048828 1863.48027344 587.61597656 1864.27304688 587.61132812 1865.08984375 C587.59958565 1867.03909508 587.58165146 1868.98830738 587.5625 1870.9375 C583.41025148 1869.34727716 580.88463777 1866.29968898 578 1863.0625 C576.93491297 1861.88670323 575.86980839 1860.71092235 574.8046875 1859.53515625 C574.26682617 1858.93719238 573.72896484 1858.33922852 573.17480469 1857.72314453 C571.62992367 1856.01217243 570.07236365 1854.3140782 568.5078125 1852.62109375 C568.02256104 1852.09563965 567.53730957 1851.57018555 567.03735352 1851.02880859 C566.33823853 1850.27204834 566.33823853 1850.27204834 565.625 1849.5 C562.15069225 1845.73223639 558.81873619 1841.89274933 555.5625 1837.9375 C550.72694808 1839.28678674 547.00269797 1841.42468656 543 1844.375 C542.38995117 1844.82037109 541.77990234 1845.26574219 541.15136719 1845.72460938 C525.6975238 1857.14527916 511.73869404 1870.51161638 499.19287109 1885.05981445 C496.24724182 1888.45227249 493.16555349 1891.71871805 490.1015625 1895.00390625 C487.45876627 1897.84945668 484.88086104 1900.72977823 482.359375 1903.68359375 C476.94459144 1909.90702073 470.8965546 1915.54006492 464.94921875 1921.24804688 C457.64047208 1928.41644065 453.78807716 1933.9727445 453.44897461 1944.44262695 C453.45421143 1945.75706787 453.45944824 1947.07150879 453.46484375 1948.42578125 C453.4662587 1949.12897995 453.46767365 1949.83217865 453.46913147 1950.5566864 C453.47469891 1952.78783544 453.48724525 1955.01888164 453.5 1957.25 C453.50501921 1958.76887875 453.50958138 1960.28775909 453.51367188 1961.80664062 C453.52465764 1965.51696012 453.54189966 1969.22722001 453.5625 1972.9375 C452.52955811 1972.8967334 451.49661621 1972.8559668 450.43237305 1972.81396484 C446.55059634 1972.66398225 442.66839633 1972.52994564 438.78588867 1972.40039062 C437.11483723 1972.34247414 435.44392393 1972.28039998 433.77319336 1972.21386719 C416.2373894 1971.15141753 416.2373894 1971.15141753 400.21875 1977.31640625 C394.1018024 1983.30351298 393.47094651 1992.36320368 393.24609375 2000.42578125 C393.22531265 2001.12897995 393.20453156 2001.83217865 393.18312073 2002.5566864 C393.11809885 2004.78769817 393.05896224 2007.01882069 393 2009.25 C392.95676964 2010.76889134 392.91315395 2012.28777177 392.86914062 2013.80664062 C392.76246666 2017.5168112 392.66106779 2021.22710421 392.5625 2024.9375 C380.18042147 2023.36752354 372.82440027 2016.7346053 365.22412109 2007.27099609 C363.50426866 2005.03679527 361.81617701 2002.78012843 360.13256836 2000.51855469 C356.01867881 1995.06194303 350.62430223 1988.28260519 343.5625 1986.9375 C333.78205216 1987.52240914 324.26139259 1989.64375192 314.6875 1991.625 C313.81600311 1991.80490479 312.94450623 1991.98480957 312.04660034 1992.17016602 C293.05875187 1996.11144832 275.64708551 2000.53620574 258.5625 2009.9375 C258.39162847 2012.95529912 258.39162847 2012.95529912 259.5625 2015.6875 C260.70968424 2019.41584878 261.05603973 2022.05968787 260.5625 2025.9375 C258.49046835 2028.95459106 256.80086213 2030.64681358 253.17553711 2031.49780273 C238.61438492 2032.975994 228.64702303 2030.7261971 216.84570312 2022.45214844 C212.50188559 2019.57051414 207.87299338 2017.21042739 203.25 2014.8125 C202.27458252 2014.3062207 201.29916504 2013.79994141 200.29418945 2013.27832031 C173.1291078 1999.40429899 145.9221356 1991.98246668 115.5625 1998.9375 C113.86091659 1999.50078279 112.16859218 2000.09542093 110.5 2000.75 C107.49978813 2001.86902349 105.68708469 2001.99215576 102.5859375 2001.21484375 C101.39713989 2000.92323364 101.39713989 2000.92323364 100.18432617 2000.62573242 C96.33709151 1999.61582885 92.49168541 1998.59937363 88.64770508 1997.57714844 C51.68719717 1987.8994815 13.71481046 1983.70851335 -24.4375 1982.9375 C-25.79149902 1982.90462891 -25.79149902 1982.90462891 -27.17285156 1982.87109375 C-79.0873724 1981.74861762 -131.00265021 1987.34587002 -182.44628906 1993.65112305 C-183.68041534 1993.80205917 -184.91454163 1993.9529953 -186.18606567 1994.10850525 C-188.51211747 1994.39398762 -190.83787987 1994.68184108 -193.16329956 1994.97242737 C-194.19754059 1995.09979782 -195.23178162 1995.22716827 -196.29736328 1995.35839844 C-197.19786407 1995.47068787 -198.09836487 1995.58297729 -199.02615356 1995.69866943 C-201.4375 1995.9375 -201.4375 1995.9375 -205.4375 1995.9375 C-205.47508423 1994.68090576 -205.47508423 1994.68090576 -205.51342773 1993.39892578 C-205.60850357 1990.29397744 -205.70774025 1987.18919819 -205.80981445 1984.08447266 C-205.87448251 1982.07855193 -205.93433106 1980.07247772 -205.99414062 1978.06640625 C-206.03603516 1976.80957031 -206.07792969 1975.55273438 -206.12109375 1974.2578125 C-206.15775146 1973.09523926 -206.19440918 1971.93266602 -206.23217773 1970.73486328 C-206.25571659 1967.9839499 -206.25571659 1967.9839499 -207.4375 1965.9375 C-207.98019531 1966.43121094 -208.52289062 1966.92492188 -209.08203125 1967.43359375 C-209.79746094 1968.07425781 -210.51289062 1968.71492188 -211.25 1969.375 C-211.95769531 1970.01308594 -212.66539062 1970.65117187 -213.39453125 1971.30859375 C-217.01216589 1974.19301755 -220.59275119 1974.32832464 -225.04736328 1974.26806641 C-229.19019093 1973.69509515 -232.04627215 1971.53458347 -235.375 1969.125 C-236.8669977 1968.10458605 -238.36053738 1967.0864237 -239.85546875 1966.0703125 C-240.6139209 1965.54727539 -241.37237305 1965.02423828 -242.15380859 1964.48535156 C-245.76102831 1962.04043249 -249.46404539 1959.76259741 -253.1875 1957.5 C-254.30523804 1956.82022095 -254.30523804 1956.82022095 -255.44555664 1956.12670898 C-284.21636253 1938.73332394 -314.15793879 1923.45104954 -344.07159424 1908.14813232 C-350.68275316 1904.76520693 -357.29122779 1901.37704666 -363.8989563 1897.98742676 C-366.23791767 1896.78823845 -368.5777677 1895.59079896 -370.91772461 1894.39355469 C-371.64993729 1894.01798431 -372.38214996 1893.64241394 -373.1365509 1893.25546265 C-374.5673764 1892.52232205 -375.99947309 1891.79165639 -377.4329071 1891.06362915 C-380.67581258 1889.40693029 -383.86610102 1887.71206755 -386.99169922 1885.84228516 C-394.31569567 1881.54353528 -399.36880263 1880.06518154 -407.8125 1880.6875 C-443.41500481 1881.90166683 -484.23614197 1870.91157826 -511.4375 1846.9375 C-539.17980918 1822.84326206 -568.21545362 1821.52891024 -603.62426758 1821.42626953 C-631.75748955 1821.30865424 -631.75748955 1821.30865424 -643.4375 1817.9375 C-644.21891357 1817.71336426 -645.00032715 1817.48922852 -645.80541992 1817.25830078 C-660.39014316 1812.63417516 -674.53634776 1805.53409386 -686.4375 1795.9375 C-687.19643555 1795.33663574 -687.19643555 1795.33663574 -687.97070312 1794.72363281 C-728.92254812 1762.15621781 -748.04603221 1711.29768035 -756.65966797 1661.04760742 C-759.00932204 1647.3424157 -764.25190966 1634.21780531 -775.5625 1625.4375 C-776.83728631 1624.57856631 -778.12770916 1623.74204657 -779.4375 1622.9375 C-780.406875 1622.339375 -781.37625 1621.74125 -782.375 1621.125 C-786.36241781 1619.5788584 -790.19264044 1619.21105762 -794.4375 1618.9375 C-796.51854484 1614.23156092 -798.30424125 1609.54371426 -799.8984375 1604.64453125 C-800.36701676 1603.21500523 -800.83586025 1601.78556579 -801.30493164 1600.35620117 C-801.54954132 1599.60776947 -801.794151 1598.85933777 -802.0461731 1598.08822632 C-825.6320796 1526.12261083 -856.33231406 1456.90912835 -887.4375 1387.9375 C-900.28106286 1359.45860113 -912.93171202 1330.89786576 -925.25 1302.1875 C-925.62286133 1301.31957825 -925.99572266 1300.45165649 -926.37988281 1299.55743408 C-939.50819448 1268.97171199 -939.50819448 1268.97171199 -941.6875 1259.9375 C-941.98140625 1258.761875 -942.2753125 1257.58625 -942.578125 1256.375 C-942.8780306 1254.89850109 -943.16265076 1253.41886771 -943.4375 1251.9375 C-943.61845215 1250.99447021 -943.7994043 1250.05144043 -943.98583984 1249.07983398 C-946.14803476 1235.80609456 -945.65539477 1222.4057672 -945.5625 1209 C-945.55244955 1206.46680042 -945.54332736 1203.93359697 -945.53515625 1201.40039062 C-945.51330786 1195.24600833 -945.4799941 1189.09177259 -945.4375 1182.9375 C-944.5101001 1183.09831055 -943.5827002 1183.25912109 -942.62719727 1183.42480469 C-939.50056295 1183.92736359 -936.53933005 1184.13850392 -933.375 1184.1875 C-932.37339844 1184.21328125 -931.37179687 1184.2390625 -930.33984375 1184.265625 C-926.93240064 1183.8803959 -925.14594951 1183.02164486 -922.4375 1180.9375 C-916.70161863 1172.18535767 -921.04085873 1157.36148811 -922.875 1147.8125 C-923.07082169 1146.76551941 -923.07082169 1146.76551941 -923.27059937 1145.6973877 C-936.47131134 1075.36865629 -963.91958858 1009.76636421 -996.9140625 946.59765625 C-997.50219727 945.46602051 -998.09033203 944.33438477 -998.69628906 943.16845703 C-999.83183723 941.06135601 -1001.01972095 938.98139425 -1002.26464844 936.93701172 C-1002.82442383 936.00775879 -1003.38419922 935.07850586 -1003.9609375 934.12109375 C-1004.71383057 932.93664673 -1004.71383057 932.93664673 -1005.48193359 931.72827148 C-1006.88670907 927.62556619 -1006.15809223 924.11066986 -1005.4375 919.9375 C-1005.12634247 918.11298058 -1005.12634247 918.11298058 -1004.80889893 916.25160217 C-1004.15501219 912.4845779 -1003.47661978 908.72217116 -1002.79638863 904.95982933 C-999.86897325 888.71123754 -997.21588387 872.43072777 -994.75390625 856.10546875 C-994.60033031 855.08923557 -994.44675438 854.0730024 -994.28852463 853.02597427 C-992.8706753 843.63690358 -991.46506836 834.24601282 -990.06518555 824.85424805 C-986.75492464 802.66968669 -983.32464391 780.52835254 -979.2109375 758.4765625 C-979.04913561 757.60690039 -978.88733372 756.73723827 -978.72062874 755.84122276 C-963.34369887 673.60080239 -933.61966791 603.76188668 -873.86328125 544.23291016 C-872.17068653 542.54574042 -870.48359403 540.85319804 -868.796875 539.16015625 C-863.74458742 534.10472951 -858.66998571 529.12413552 -853.23046875 524.48095703 C-850.0843973 521.77269672 -847.08384245 518.90818301 -844.0625 516.0625 C-839.88843348 512.14776898 -835.70621422 508.24936186 -831.4375 504.4375 C-820.61657161 494.72325747 -810.10961317 484.72410535 -799.79663086 474.47286987 C-798.65682531 473.34046592 -797.51543136 472.2096581 -796.37231445 471.08059692 C-789.23610078 464.02404489 -782.66574919 456.81956417 -776.4375 448.9375 C-775.56412548 447.88989466 -774.68640822 446.84586174 -773.80078125 445.80859375 C-761.71742619 431.46967908 -756.30476777 415.41129835 -750.33129883 397.86254883 C-744.08119334 379.5345975 -736.52087008 366.69037208 -722.68188477 352.93896484 C-721.71805413 351.97405846 -720.75465727 351.00871861 -719.79165649 350.04298401 C-717.19905407 347.44557701 -714.60031474 344.85439431 -712.00021482 342.26449537 C-709.26602358 339.53915896 -706.53717743 336.8084796 -703.80760193 334.07852173 C-699.22564341 329.49749663 -694.63984817 324.9203416 -690.05151367 320.34570312 C-684.7637223 315.07363844 -679.48117697 309.79636414 -674.20161015 304.51606405 C-668.55529572 298.86907161 -662.90517204 293.22590227 -657.25393558 287.58383608 C-655.63669633 285.96871736 -654.02015889 284.35289909 -652.40377998 282.7369194 C-649.85421839 280.1883702 -647.30209353 277.64241426 -644.74805069 275.09835625 C-643.37633707 273.7309061 -642.00700491 272.36106833 -640.63777161 270.99113464 C-636.26581817 266.64154205 -631.83821415 262.42805167 -627.14515591 258.42540932 C-624.4371042 256.06583831 -621.94348341 253.50771758 -619.4375 250.9375 C-615.66291532 247.11651853 -611.84447238 243.44905152 -607.75 239.96875 C-604.46390406 237.08231438 -601.30587636 234.06392208 -598.125 231.0625 C-592.9287961 226.17338823 -587.62407931 221.5332882 -582.046875 217.078125 C-579.25318484 214.78629535 -576.59541222 212.38518188 -573.9375 209.9375 C-568.61091635 205.04403371 -563.10076941 200.43531001 -557.4375 195.9375 C-556.3546875 195.06931641 -556.3546875 195.06931641 -555.25 194.18359375 C-535.67770581 178.93096605 -512.29758941 182.2294785 -489.07666016 184.86083984 C-474.80763828 186.43280252 -460.71528154 186.56261335 -446.4375 184.9375 C-446.31375 184.3290625 -446.19 183.720625 -446.0625 183.09375 C-439.6016615 155.63518639 -418.09901444 129.70942312 -394.4375 114.9375 C-393.87611328 114.58445801 -393.31472656 114.23141602 -392.73632812 113.86767578 C-371.30131691 100.57002994 -346.82448467 94.34555995 -321.796875 99.46484375 C-311.30249498 101.56719471 -303.4093723 97.55654166 -294.74755859 91.81787109 C-283.91098278 84.22936796 -274.26770695 74.91719755 -265.02734375 65.49609375 C-263.30882683 63.81135603 -261.51642715 62.25147191 -259.6875 60.6875 C-256.26229047 57.74686468 -253.09377179 54.59783925 -249.9375 51.375 C-238.07602243 39.37725374 -238.07602243 39.37725374 -229.4375 37.9375 C-226.13879752 38.12780976 -224.22377828 38.31389998 -221.625 40.375 C-218.96175141 43.87927446 -219.24575844 47.20630595 -219.25 51.4375 C-219.25012085 52.55535889 -219.25012085 52.55535889 -219.25024414 53.69580078 C-219.3409878 62.86377639 -219.52437386 73.19812158 -222.4375 81.9375 C-221.45394531 81.22207031 -220.47039063 80.50664062 -219.45703125 79.76953125 C-168.93112831 43.3507871 -110.90130789 21.97866405 -52.79240417 0.98977661 C-48.17404512 -0.68111022 -43.57628039 -2.38656392 -39.00537109 -4.18359375 C-38.14590378 -4.51629272 -37.28643646 -4.8489917 -36.40092468 -5.19177246 C-34.80244889 -5.8126832 -33.20868971 -6.44594975 -31.62117004 -7.09436035 C-20.75325361 -11.28083191 -9.45711917 -5.71338514 0 0 Z M-847.4375 1286.9375 C-847.4375 1290.43915922 -846.59480849 1291.83138084 -844.91796875 1294.875 C-844.39009766 1295.85339844 -843.86222656 1296.83179688 -843.31835938 1297.83984375 C-842.20529969 1299.87595986 -841.0882266 1301.90988809 -839.96679688 1303.94140625 C-835.03403002 1313.11336304 -832.42330639 1321.78189356 -831.5 1332.125 C-830.85074576 1338.21695397 -829.76676143 1342.74776894 -826.4375 1347.9375 C-825.633125 1349.2059375 -825.633125 1349.2059375 -824.8125 1350.5 C-819.11391397 1356.34854882 -811.91454426 1360.73305246 -804.4375 1363.9375 C-803.7775 1363.6075 -803.1175 1363.2775 -802.4375 1362.9375 C-803.05625 1362.04224609 -803.05625 1362.04224609 -803.6875 1361.12890625 C-811.17511393 1349.88077193 -816.32459679 1337.6600223 -821.51391602 1325.22387695 C-829.32337201 1304.88854942 -829.32337201 1304.88854942 -842.4375 1287.9375 C-845.1519047 1286.98861395 -845.1519047 1286.98861395 -847.4375 1286.9375 Z M-876.16796875 1293.16015625 C-878.22849663 1296.04489528 -878.38105207 1298.43772813 -878.4375 1301.9375 C-876.78249656 1304.66913268 -876.78249656 1304.66913268 -874.1875 1307 C-869.42940459 1311.83862735 -865.2350842 1316.87201971 -861.10644531 1322.25415039 C-859.00664825 1324.97899791 -856.90406578 1327.54168724 -854.4375 1329.9375 C-855.83852029 1321.52158091 -858.3064287 1313.54086338 -860.9375 1305.4375 C-861.34540548 1304.15115368 -861.75295981 1302.86469595 -862.16015625 1301.578125 C-862.55074219 1300.36640625 -862.94132813 1299.1546875 -863.34375 1297.90625 C-863.69759766 1296.80732422 -864.05144531 1295.70839844 -864.41601562 1294.57617188 C-865.27422466 1291.83134543 -865.27422466 1291.83134543 -867.4375 1289.9375 C-871.6830701 1289.9375 -872.87368086 1290.68318535 -876.16796875 1293.16015625 Z M784.5625 1502.9375 C785.5625 1504.9375 785.5625 1504.9375 785.5625 1504.9375 Z " fill="#EC4003" transform="translate(1009.4375,110.0625)"/>
<path d="M0 0 C28.57311822 -0.47456144 57.14303328 -0.86116431 85.71909523 -1.08805561 C98.98832162 -1.19621873 112.25492116 -1.34359164 125.52246094 -1.58422852 C137.09048471 -1.7939403 148.65660614 -1.92911138 160.22647798 -1.97585839 C166.35054211 -2.00317775 172.46916586 -2.06706231 178.59148026 -2.22033119 C215.86746262 -3.11836121 215.86746262 -3.11836121 224.39110756 2.06032562 C229.34863569 6.81615901 232.05415741 12.0757286 234.15499687 18.55669212 C235.31963036 21.92420413 237.0346051 24.39978247 239.12109375 27.2734375 C240.22769184 28.97322364 241.33318835 30.67372752 242.4375 32.375 C243.69658395 34.30991577 244.95569946 36.244811 246.21484375 38.1796875 C246.83987793 39.14100586 247.46491211 40.10232422 248.10888672 41.09277344 C251.23471769 45.89814333 254.36769563 50.69884829 257.5 55.5 C258.75003476 57.416644 260.00003475 59.33331067 261.25 61.25 C261.86875 62.19875 262.4875 63.1475 263.125 64.125 C283.75 95.75 283.75 95.75 285.62451172 98.62426758 C286.87611947 100.5433886 288.12774711 102.46249665 289.37939453 104.3815918 C292.47995818 109.13560133 295.58019012 113.88982647 298.6796875 118.64453125 C305.27932111 128.76769805 311.88538738 138.88661332 318.5 149 C325.72834343 160.05174806 332.94566845 171.11063334 340.15722656 182.17333984 C343.27081773 186.94932799 346.38546724 191.72462586 349.5 196.5 C350.75000496 198.41666343 352.00000497 200.33333009 353.25 202.25 C353.86875 203.19875 354.4875 204.1475 355.125 205.125 C375.75 236.75 375.75 236.75 377.62451172 239.62426758 C378.87611947 241.5433886 380.12774711 243.46249665 381.37939453 245.3815918 C384.47995818 250.13560133 387.58019012 254.88982647 390.6796875 259.64453125 C397.27932111 269.76769805 403.88538738 279.88661332 410.5 290 C417.72834343 301.05174806 424.94566845 312.11063334 432.15722656 323.17333984 C435.27081773 327.94932799 438.38546724 332.72462586 441.5 337.5 C442.75000496 339.41666343 444.00000497 341.33333009 445.25 343.25 C445.86875 344.19875 446.4875 345.1475 447.125 346.125 C482.74999998 400.74999997 482.74999998 400.74999997 484.62451172 403.62426758 C485.87611947 405.5433886 487.12774711 407.46249665 488.37939453 409.3815918 C491.47995818 414.13560133 494.58019012 418.88982647 497.6796875 423.64453125 C504.27932111 433.76769805 510.88538738 443.88661332 517.5 454 C524.72834343 465.05174806 531.94566845 476.11063334 539.15722656 487.17333984 C542.27081773 491.94932799 545.38546724 496.72462586 548.5 501.5 C549.75000496 503.41666343 551.00000497 505.33333009 552.25 507.25 C552.86875 508.19875 553.4875 509.1475 554.125 510.125 C574.75000002 541.75000003 574.75000002 541.75000003 576.62451172 544.62426758 C577.87611947 546.5433886 579.12774711 548.46249665 580.37939453 550.3815918 C583.47995818 555.13560133 586.58019012 559.88982647 589.6796875 564.64453125 C596.27932111 574.76769805 602.88538738 584.88661332 609.5 595 C616.72834343 606.05174806 623.94566845 617.11063334 631.15722656 628.17333984 C634.27081773 632.94932799 637.38546724 637.72462586 640.5 642.5 C641.75000496 644.41666343 643.00000497 646.33333009 644.25 648.25 C645.178125 649.673125 645.178125 649.673125 646.125 651.125 C681.75 705.75 681.75 705.75 683.62451172 708.62426758 C684.87611947 710.5433886 686.12774711 712.46249665 687.37939453 714.3815918 C690.47995818 719.13560133 693.58019012 723.88982647 696.6796875 728.64453125 C703.27932111 738.76769805 709.88538738 748.88661332 716.5 759 C723.72834343 770.05174806 730.94566845 781.11063334 738.15722656 792.17333984 C741.27081773 796.94932799 744.38546724 801.72462586 747.5 806.5 C748.75000496 808.41666343 750.00000497 810.33333009 751.25 812.25 C752.178125 813.673125 752.178125 813.673125 753.125 815.125 C773.75 846.75 773.75 846.75 775.62451172 849.62426758 C776.87611947 851.5433886 778.12774711 853.46249665 779.37939453 855.3815918 C782.47995818 860.13560133 785.58019012 864.88982647 788.6796875 869.64453125 C795.27932111 879.76769805 801.88538738 889.88661332 808.5 900 C815.10690402 910.10160065 821.70550411 920.20857028 828.296875 930.3203125 C830.84729543 934.23285843 833.39957999 938.14418015 835.953125 942.0546875 C836.60974121 943.06055908 837.26635742 944.06643066 837.94287109 945.1027832 C839.17459152 946.98958466 840.40665187 948.87616428 841.63916016 950.76245117 C845.02178802 955.94535583 848.38223318 961.14201512 851.72705078 966.34936523 C852.13991837 966.99187981 852.55278595 967.63439438 852.97816467 968.29637909 C853.98557152 969.86417023 854.9928039 971.43207347 856 973 C856.16592067 918.13248252 855.93870707 863.26965118 855.54101562 808.40380859 C855.53507191 807.58295492 855.5291282 806.76210125 855.52300437 805.91637323 C855.37101194 784.94736689 855.21307678 763.9784064 855.05318191 743.00945901 C854.90286618 723.29184988 854.75734536 703.57420646 854.61248404 683.85655661 C854.54105591 674.13493336 854.46941183 664.4133117 854.39771271 654.69169044 C854.39054503 653.71979191 854.38337734 652.74789338 854.37599246 651.74654338 C854.2067809 628.80904483 854.03547204 605.87156204 853.86376953 582.93408203 C853.85255821 581.43621068 853.85255821 581.43621068 853.8411204 579.9080793 C853.69719256 560.67936981 853.55306485 541.45066181 853.40886688 522.22195435 C853.31794393 510.0973514 853.22706416 497.97274814 853.13623047 485.84814453 C853.12502505 484.35259325 853.12502505 484.35259325 853.11359326 482.82682881 C852.94203294 459.92758362 852.77114011 437.0283337 852.60228729 414.12906837 C852.59513107 413.15859535 852.58797484 412.18812233 852.58060176 411.18824103 C852.50904076 401.48161184 852.43759561 391.77498181 852.3663195 382.06835052 C852.22190154 362.4040526 852.07608852 342.73976731 851.92597961 323.07551193 C851.76651453 302.17455507 851.60992457 281.2735789 851.45898438 260.37255859 C851.45010067 259.14376963 851.45010067 259.14376963 851.44103749 257.89015665 C851.19449113 223.73254544 850.96855443 189.57539462 850.93286133 155.41680908 C850.93110494 153.73829102 850.93110494 153.73829102 850.92931306 152.0258635 C850.91116676 131.01716421 850.96328479 110.0087056 851 89 C816.68 89 782.36 89 747 89 C747 59.63 747 30.26 747 0 C848.31 0 949.62 0 1054 0 C1054 29.37 1054 58.74 1054 89 C1020.67 89 987.34 89 953 89 C953 429.89 953 770.78 953 1122 C913.73 1122 874.46 1122 834 1122 C830.7 1116.72 827.4 1111.44 824 1106 C821.10131079 1101.61099532 818.19038775 1097.23556607 815.25 1092.875 C808.95307294 1083.49734687 802.79463836 1074.04597748 796.76000977 1064.49658203 C793.25279948 1058.95179126 789.68193169 1053.46056508 786.02172852 1048.01586914 C781.94254948 1041.93978683 777.9394088 1035.81467819 773.9375 1029.6875 C773.57473969 1029.13211548 773.21197937 1028.57673096 772.83822632 1028.0045166 C770.97102629 1025.14568023 769.10428759 1022.28654305 767.23779297 1019.42724609 C763.66164652 1013.94945948 760.08050164 1008.47494038 756.5 1003 C755.08070282 1000.82944431 753.66143202 998.65887137 752.2421875 996.48828125 C751.54061523 995.41529785 750.83904297 994.34231445 750.11621094 993.23681641 C748.0173403 990.02652258 745.91878462 986.81602308 743.8203125 983.60546875 C736.38650055 972.23284599 728.94719842 960.86385919 721.5 949.5 C713.35587923 937.07269025 705.22189076 924.63879123 697.09277344 912.20166016 C693.56243661 906.80072254 690.03116739 901.40039461 686.5 896 C685.08332895 893.8333362 683.66666228 891.66666953 682.25 889.5 C681.54875 888.4275 680.8475 887.355 680.125 886.25 C656.74999999 850.49999998 656.74999999 850.49999998 654.62548828 847.25073242 C653.20721155 845.08161288 651.78891724 842.91250483 650.37060547 840.7434082 C646.8534295 835.36436401 643.33654786 829.98512786 639.8203125 824.60546875 C632.38650055 813.23284599 624.94719842 801.86385919 617.5 790.5 C609.35587923 778.07269025 601.22189076 765.63879123 593.09277344 753.20166016 C589.56243661 747.80072254 586.03116739 742.40039461 582.5 737 C581.08332895 734.8333362 579.66666228 732.66666953 578.25 730.5 C577.54875 729.4275 576.8475 728.355 576.125 727.25 C552.74999999 691.49999999 552.74999999 691.49999999 550.62548828 688.25073242 C549.20721155 686.08161288 547.78891724 683.91250483 546.37060547 681.7434082 C542.8534295 676.36436401 539.33654786 670.98512786 535.8203125 665.60546875 C528.38650055 654.23284599 520.94719842 642.86385919 513.5 631.5 C505.35587923 619.07269025 497.22189076 606.63879123 489.09277344 594.20166016 C485.56243661 588.80072254 482.03116739 583.40039461 478.5 578 C477.08332895 575.8333362 475.66666228 573.66666953 474.25 571.5 C473.54875 570.4275 472.8475 569.355 472.125 568.25 C448.75000003 532.50000004 448.75000003 532.50000004 446.62548828 529.25073242 C445.20721155 527.08161288 443.78891724 524.91250483 442.37060547 522.7434082 C438.8534295 517.36436401 435.33654786 511.98512786 431.8203125 506.60546875 C424.38650055 495.23284599 416.94719842 483.86385919 409.5 472.5 C401.35587923 460.07269025 393.22189076 447.63879123 385.09277344 435.20166016 C381.56243661 429.80072254 378.03116739 424.40039461 374.5 419 C373.08332895 416.8333362 371.66666228 414.66666953 370.25 412.5 C369.54875 411.4275 368.8475 410.355 368.125 409.25 C361.75 399.49999999 361.75 399.49999999 359.62548828 396.25073242 C358.20721155 394.08161288 356.78891724 391.91250483 355.37060547 389.7434082 C351.8534295 384.36436401 348.33654786 378.98512786 344.8203125 373.60546875 C337.38650055 362.23284599 329.94719842 350.86385919 322.5 339.5 C314.35587923 327.07269025 306.22189076 314.63879123 298.09277344 302.20166016 C294.56243661 296.80072254 291.03116739 291.40039461 287.5 286 C286.08332895 283.8333362 284.66666228 281.66666953 283.25 279.5 C282.54875 278.4275 281.8475 277.355 281.125 276.25 C257.74999999 240.49999998 257.74999999 240.49999998 255.62548828 237.25073242 C254.20721155 235.08161288 252.78891724 232.91250483 251.37060547 230.7434082 C247.8534295 225.36436401 244.33654786 219.98512786 240.8203125 214.60546875 C239.42189724 212.4661313 238.02345968 210.32680842 236.625 208.1875 C235.93325684 207.12926025 235.24151367 206.07102051 234.52880859 204.98071289 C230.72081259 199.15659017 226.90942312 193.33471982 223.09375 187.515625 C222.67894379 186.88292191 222.26413757 186.25021881 221.83676147 185.5983429 C219.8444538 182.55952427 217.85168271 179.52101202 215.85791016 176.4831543 C211.61996264 170.02191346 207.40588239 163.54579793 203.21044922 157.05688477 C202.70670273 156.27805183 202.20295624 155.4992189 201.6839447 154.69678497 C200.45581566 152.79795195 199.22783685 150.89902197 198 149 C197.83566769 204.20811263 198.05832007 259.411491 198.45898438 314.61791992 C198.46492809 315.43775098 198.4708718 316.25758203 198.47699563 317.10225645 C198.62892961 338.0368107 198.78687796 358.97131844 198.94681809 379.90581286 C199.09717161 399.59041068 199.24267566 419.27504321 199.38751596 438.95968226 C199.4589419 448.66612002 199.53058652 458.37255616 199.60228729 468.07899189 C199.60945497 469.04934963 199.61662266 470.01970737 199.62400754 471.01946989 C199.7931984 493.9176953 199.96451616 516.81590472 200.13623047 539.71411133 C200.14744179 541.20931609 200.14744179 541.20931609 200.1588796 542.734727 C200.30281208 561.92983176 200.44694591 581.124935 200.59113312 600.32003784 C200.68205814 612.42470262 200.77293721 624.52936773 200.86376953 636.6340332 C200.87497495 638.12714611 200.87497495 638.12714611 200.88640674 639.65042292 C201.05796917 662.51262111 201.22886081 685.37482405 201.39771271 708.23704243 C201.40486893 709.20594981 201.41202516 710.17485719 201.41939824 711.17312539 C201.49095921 720.86408441 201.56240445 730.55504427 201.6336805 740.24600538 C201.77809035 759.8774385 201.92390013 779.5088589 202.07402039 799.14024925 C202.23348929 820.00517432 202.3900813 840.87011873 202.54101562 861.73510742 C202.5469381 862.55291804 202.55286057 863.37072866 202.55896251 864.21332142 C202.80563782 898.33122199 203.03147848 932.44865839 203.06713867 966.5675354 C203.0683096 967.6862777 203.06948053 968.80502 203.07068694 969.95766358 C203.08884158 990.97185367 203.03670991 1011.98580372 203 1033 C243.26 1033 283.52 1033 325 1033 C325 1062.37 325 1091.74 325 1122 C217.75 1122 110.5 1122 0 1122 C0 1092.63 0 1063.26 0 1033 C33.99 1033 67.98 1033 103 1033 C103 721.48 103 409.96 103 89 C69.01 89 35.02 89 0 89 C0 59.63 0 30.26 0 0 Z " fill="#EC4003" transform="translate(473,560)"/>
<path d="M0 0 C2.69223121 -0.01088405 5.38403569 -0.02969379 8.07623291 -0.05255127 C90.67325208 -0.70816006 173.71035724 29.4529469 244.85440063 70.23117065 C245.58546021 70.64640991 246.31651978 71.06164917 247.06973267 71.48947144 C271.25960855 85.26556975 294.1762395 100.77743692 315.85440063 118.23117065 C317.3181311 119.40292847 317.3181311 119.40292847 318.81143188 120.59835815 C324.191664 124.94769265 329.3975606 129.44613923 334.51065063 134.10617065 C336.66132774 136.0561179 338.84265035 137.96143194 341.04190063 139.85617065 C344.20630039 142.60837405 347.15820221 145.51077945 350.09268188 148.50460815 C351.84286407 150.21986431 353.66330899 151.78357641 355.54190063 153.35617065 C360.91728939 157.99477833 365.57314145 163.3001223 370.32852173 168.55685425 C371.77703039 170.14627383 373.24266975 171.71714311 374.71768188 173.2819519 C387.08258368 186.43392851 396.47969917 200.71018856 405.89883423 216.05392456 C409.02323178 221.13019294 412.1902074 226.17965116 415.35440063 231.23117065 C416.60462026 233.23103337 417.85461991 235.23103362 419.10440063 237.23117065 C419.72315063 238.22117065 420.34190063 239.21117065 420.97940063 240.23117065 C467.85440063 315.23117065 514.72940063 390.23117065 561.60440063 465.23117065 C562.22387573 466.22229858 562.84335083 467.21342651 563.4815979 468.23458862 C564.72439086 470.22312216 565.96706773 472.21172826 567.20962524 474.20040894 C570.44391677 479.3764643 573.68056192 484.55102726 576.92080688 489.72335815 C577.58983032 490.79199097 578.25885376 491.86062378 578.94815063 492.9616394 C580.21692551 494.98815483 581.48640296 497.01423062 582.75674438 499.0397644 C583.91762431 500.89459256 585.06777748 502.75618277 586.20645142 504.62472534 C587.7865858 507.20807062 587.7865858 507.20807062 589.5140686 509.40792847 C593.45009085 514.88128904 594.50556141 519.97644706 595.32559204 526.5151062 C595.44848886 527.43296559 595.57138567 528.35082499 595.69800663 529.2964983 C596.09361084 532.27349025 596.47467215 535.25211562 596.85440063 538.23117065 C597.11173185 540.20270777 597.36953025 542.17418397 597.62779236 544.14559937 C598.4587589 550.53004945 599.2656512 556.91744413 600.06924438 563.3053894 C600.21595644 564.46935556 600.3626685 565.63332172 600.51382637 566.83255959 C601.29206937 573.00806253 602.06816133 579.18383129 602.84243774 585.35983276 C603.46988955 590.36193959 604.1011331 595.36354358 604.73599243 600.36471558 C611.6927855 655.18580017 617.82685278 710.02125194 617.97940063 765.35617065 C617.98407349 766.51205688 617.98874634 767.66794312 617.99356079 768.8588562 C617.98168254 775.06706774 617.6741861 781.07627339 616.85440063 787.23117065 C628.12169617 784.4078514 631.51218531 777.83440126 637.46109009 768.37130737 C641.72128756 761.69607063 646.23176713 756.1108322 653.85440063 753.23117065 C655.17440063 753.23117065 656.49440063 753.23117065 657.85440063 753.23117065 C657.45479126 754.43128784 657.05518188 755.63140503 656.64346313 756.8678894 C656.23015747 758.10998169 656.23015747 758.10998169 655.8085022 759.37716675 C655.14801906 761.35286988 654.48300116 763.32706065 653.81436157 765.30001831 C633.03606221 826.77742793 622.32298656 891.72908259 618.59902954 956.45870972 C618.52474731 957.72682495 618.45046509 958.99494019 618.37393188 960.30148315 C618.31954956 961.40508179 618.26516724 962.50868042 618.20913696 963.64572144 C617.85440063 966.23117065 617.85440063 966.23117065 615.85440063 968.23117065 C603.68441553 925.39991238 610.84712924 879.14864806 616.22817993 835.73703003 C616.3356958 834.86606186 616.44321167 833.99509369 616.5539856 833.09773254 C616.75655952 831.46297008 616.96134428 829.82847948 617.16873169 828.19432068 C617.58618883 824.83234619 617.85440063 821.62600691 617.85440063 818.23117065 C617.40709595 818.7622644 616.95979126 819.29335815 616.49893188 819.84054565 C607.91652886 829.86859866 607.91652886 829.86859866 603.72158813 830.60617065 C599.93075616 830.8063466 597.44885414 830.53500244 594.04190063 828.79367065 C587.40532925 821.01940132 586.63053836 811.92810176 586.97940063 802.04367065 C586.83033399 797.49713798 586.41966446 794.05210415 583.85440063 790.23117065 C581.50360084 788.24433804 579.06279367 786.60198185 576.47158813 784.94210815 C572.58962189 782.40434514 569.28286956 779.33822062 565.85440063 776.23117065 C565.11190063 775.59179565 564.36940063 774.95242065 563.60440063 774.29367065 C558.55072043 769.92292021 554.14160304 765.3445074 549.85440063 760.23117065 C549.04358032 759.3082019 548.23276001 758.38523315 547.39736938 757.43429565 C528.70675315 736.05705231 514.97250026 711.2797416 501.85440063 686.23117065 C501.22767456 685.04708618 501.22767456 685.04708618 500.58828735 683.83908081 C499.52689414 681.81459671 498.49620877 679.7783302 497.47940063 677.73117065 C496.93541626 676.64835815 496.39143188 675.56554565 495.83096313 674.44992065 C493.76062607 667.62608969 496.41340564 660.75011085 498.29190063 654.10617065 C505.76453201 626.42936208 505.12724241 598.32453529 490.63174438 572.9850769 C483.40146818 561.78212146 474.46799531 554.39399876 463.55361938 546.9928894 C438.38359639 529.9001724 427.39718631 509.97555124 416.85440063 482.23117065 C416.19141968 480.49939575 416.19141968 480.49939575 415.51504517 478.7326355 C404.69914314 450.4022797 404.69914314 450.4022797 401.85440063 438.23117065 C401.66120239 437.40810425 401.46800415 436.58503784 401.26895142 435.73703003 C397.15136021 417.30366661 397.41970604 398.9966018 397.85440063 380.23117065 C391.09647065 382.77449674 384.79717385 385.74779039 378.47940063 389.23117065 C365.73660239 396.10086352 352.2183018 401.6597941 337.44815063 398.7585144 C329.13349477 395.92526694 322.10065722 389.98722686 315.08779907 384.85568237 C311.56175388 382.29093547 307.98703299 379.79646098 304.41690063 377.29367065 C297.76829079 372.61010291 291.17061698 367.85862811 284.58511353 363.08688354 C279.53379995 359.4312918 274.45488834 355.81777447 269.35440063 352.23117065 C261.23242545 346.51765793 253.17946178 340.71169363 245.13809204 334.88546753 C241.29560952 332.10198864 237.45030093 329.32242466 233.60440063 326.54367065 C232.8516687 325.99976685 232.09893677 325.45586304 231.32339478 324.89547729 C226.28382808 321.25661613 221.23131632 317.63647738 216.16836548 314.03024292 C212.26113504 311.24437759 208.37165369 308.43484873 204.48696899 305.61764526 C195.62981571 299.19723881 186.69717639 292.89266579 177.72549438 286.6335144 C173.25682846 283.51573824 168.80303718 280.37743448 164.35440063 277.23117065 C131.99000014 254.36691968 99.32106115 231.86178018 65.9100647 210.54464722 C63.58312726 209.05783921 61.26190868 207.56228151 58.94033813 206.06710815 C37.95354941 192.58884025 16.6301073 179.58222614 -4.9937439 167.14767456 C-10.06220689 164.2310331 -15.09518248 161.33027969 -19.91513062 158.01242065 C-31.26803735 150.43292421 -42.01214007 150.03493246 -55.45809937 149.56710815 C-74.45271635 148.8962061 -93.06539442 144.95077395 -111.14559937 139.23117065 C-111.94481812 138.98028687 -112.74403687 138.72940308 -113.56747437 138.47091675 C-133.87239059 131.93653249 -152.77637871 121.91418461 -169.14559937 108.23117065 C-169.93329712 107.58583374 -169.93329712 107.58583374 -170.73690796 106.92745972 C-182.55921638 97.16004463 -192.68762438 84.7821213 -195.14559937 69.23117065 C-196.07384514 58.88351287 -194.52037957 48.44869384 -188.33309937 39.85617065 C-187.29515234 38.62668228 -186.23250433 37.41759945 -185.14559937 36.23117065 C-184.62095093 35.61628784 -184.09630249 35.00140503 -183.55575562 34.3678894 C-172.89756714 22.65642112 -157.88700434 21.28555099 -142.99862671 20.54660034 C-107.31925699 18.92697608 -107.31925699 18.92697608 -95.14559937 26.23117065 C-94.78208374 25.51831909 -94.41856812 24.80546753 -94.04403687 24.0710144 C-88.71908261 13.92629386 -82.91686357 5.40693668 -71.44418335 1.67819214 C-68.28726587 1.06424462 -65.21650927 1.00573162 -62.00106812 0.9147644 C-61.26840225 0.89380203 -60.53573639 0.87283966 -59.78086853 0.85124207 C-57.29839937 0.78362879 -54.8158502 0.72496647 -52.33309937 0.66867065 C-51.46423096 0.64848877 -50.59536255 0.62830688 -49.70016479 0.60751343 C-33.13584489 0.23650954 -16.56813292 0.06522104 0 0 Z " fill="#EC4003" transform="translate(1339.1455993652344,165.76882934570313)"/>
</svg>
